<?xml version="1.0" encoding="UTF-8"?>
<svg id="Layer_1" xmlns="http://www.w3.org/2000/svg" width="32" height="32" version="1.1" viewBox="0 0 32 32">
  <!-- Generator: Adobe Illustrator 29.3.1, SVG Export Plug-In . SVG Version: 2.1.0 Build 151)  -->
  <defs>
    <style>
      .st0 {
        fill: #ea580c;
      }

      .st1 {
        fill: #fff;
      }
    </style>
  </defs>
  <path class="st0" d="M0,0h32v32H0S0,0,0,0Z"/>
  <g>
    <path class="st1" d="M10.9,11c-.1,0-.3-.2-.6-.3-.3-.1-.6-.2-.9-.3-.4-.1-.7-.2-1.1-.3-.4,0-.8-.1-1.1-.1s-.7,0-1.1.1c-.4,0-.7.3-1,.6s-.5.8-.7,1.4c-.2.6-.3,1.5-.3,2.6s0,2,.3,2.6c.2.6.4,1.1.7,1.4.3.3.6.5.9.6.4,0,.7.1,1,.1s.7,0,1.1-.1.8-.2,1.1-.3c.3-.1.6-.3.9-.4.3-.1.5-.3.6-.4v.3c0,.8,0,1.5-.1,1.9,0,.5-.2.8-.4,1.1-.2.2-.5.4-.9.4-.4,0-.9,0-1.5,0s-.8,0-1.3,0c-.5,0-1-.1-1.4-.2l-.2,1.2c.2,0,.4,0,.6,0,.2,0,.5,0,.8,0s.5,0,.8,0c.3,0,.6,0,.9,0,.9,0,1.6,0,2.2-.2s1-.4,1.3-.7c.3-.4.5-.9.6-1.5.1-.6.2-1.5.2-2.5v-8.1h-.9l-.4.8ZM10.7,16.8c-.1.1-.4.3-.6.4-.3.2-.6.3-.9.4-.3.1-.6.2-.9.3-.3,0-.6.1-.9.1-.4,0-.6,0-.9-.1-.2,0-.5-.3-.6-.5-.2-.3-.3-.6-.4-1.1,0-.5-.1-1-.1-1.7s0-1.2.1-1.7c0-.4.2-.8.4-1s.4-.4.6-.5c.3,0,.6-.1.9-.1s.6,0,.9.1c.3,0,.6.1,1,.2.3,0,.6.2.9.3s.5.2.5.3v4.6Z"/>
    <path class="st1" d="M27.4,10.6c-.4-.4-1-.6-1.9-.6s-.7,0-1,.1-.7.2-1,.3c-.4.1-.7.3-1,.4-.3.2-.6.3-.8.5-.3-.9-1.1-1.4-2.3-1.4s-.6,0-1,.1-.7.2-1,.3-.7.3-1,.4c-.3.1-.6.3-.8.5l-.3-1.1h-1.1v9s1.4,0,1.4,0v-6.7c.2-.2.5-.3.8-.5s.6-.3.9-.4c.3-.1.6-.2.9-.3.3,0,.6-.1.8-.1.6,0,1,.1,1.2.4.2.3.3.6.3,1.2v6.3h1.4v-6.7c.2-.2.5-.4.8-.5.3-.1.6-.3.9-.4.3-.1.6-.2.9-.2s.5,0,.8,0c.6,0,1,.1,1.2.4.2.3.2.6.2,1.2v6.4h1.4v-6.7c0-.9-.2-1.5-.6-1.9Z"/>
  </g>
</svg>